<svg width="20.000000" height="20.000000" viewBox="0 0 20 20" fill="none" xmlns="http://www.w3.org/2000/svg" xmlns:xlink="http://www.w3.org/1999/xlink">
	<desc>
			Created with Pixso.
	</desc>
	<g clip-path="url(#clip2_356)">
		<path id="Vector" d="M11.7678 11.7678C11.2989 12.2366 10.663 12.5 10 12.5C9.33696 12.5 8.70108 12.2366 8.23224 11.7678C7.7634 11.2989 7.5 10.6631 7.5 10C7.5 9.33694 7.7634 8.70108 8.23224 8.23224C8.70108 7.7634 9.33696 7.5 10 7.5C10.663 7.5 11.2989 7.7634 11.7678 8.23224C12.2366 8.70108 12.5 9.33694 12.5 10C12.5 10.6631 12.2366 11.2989 11.7678 11.7678Z" stroke="#5D5FEF" stroke-width="2.000000" stroke-linejoin="round"/>
		<path id="Vector" d="M10 4.16666C13.7317 4.16666 16.89 6.61917 17.9517 10C16.89 13.3808 13.7317 15.8333 10 15.8333C6.26917 15.8333 3.11 13.3808 2.04834 10C3.11 6.61917 6.26917 4.16666 10 4.16666Z" stroke="#5D5FEF" stroke-width="2.000000" stroke-linejoin="round"/>
	</g>
	<defs>
		<clipPath id="clip2_356">
			<rect id="eye" width="20.000000" height="20.000000" fill="white"/>
		</clipPath>
	</defs>
</svg>
