<svg width="22.000000" height="22.000008" viewBox="0 0 22 22" fill="none" xmlns="http://www.w3.org/2000/svg" xmlns:xlink="http://www.w3.org/1999/xlink">
	<desc>
			Created with Pixso.
	</desc>
	<path id="Vector 1" d="M18.7778 1L18.7778 5.44444" stroke="#000000" stroke-width="2.000000" stroke-linecap="round"/>
	<path id="Vector 2" d="M21 3.22223L16.5556 3.22223" stroke="#000000" stroke-width="2.000000" stroke-linecap="round"/>
	<path id="Rectangle 4" d="M18.7778 9.61112L18.7778 17C18.7778 19.2091 16.9869 21 14.7778 21L5 21C2.79086 21 1 19.2091 1 17L1 16.2778L1 7.22223C1 5.01309 2.79086 3.22223 5 3.22223L12.3889 3.22223M1 16.2778L4.83824 12.4395C6.40034 10.8774 8.933 10.8774 10.4951 12.4395C11.8961 13.8406 13.5664 15.5108 14.8889 16.8333" stroke="#000000" stroke-width="2.000000"/>
	<path id="Vector 3" d="M18.7778 14.6111L18.2729 14.1062C16.7108 12.5441 14.1781 12.5441 12.616 14.1062L12.3889 14.3333" stroke="#000000" stroke-width="2.000000" stroke-linecap="round"/>
	<circle id="Ellipse 1" cx="12.111099" cy="7.666672" r="0.555556" fill="#000000"/>
	<defs/>
</svg>
